<?xml version="1.0" encoding="UTF-8" standalone="no"?>
<!DOCTYPE svg PUBLIC "-//W3C//DTD SVG 1.1//EN"
 "http://www.w3.org/Graphics/SVG/1.1/DTD/svg11.dtd">
<!-- Generated by graphviz version 2.43.0 (0)
 -->
<!-- Title: %3 Pages: 1 -->
<svg width="689pt" height="406pt"
 viewBox="0.00 0.00 689.00 406.00" xmlns="http://www.w3.org/2000/svg" xmlns:xlink="http://www.w3.org/1999/xlink">
<g id="graph0" class="graph" transform="scale(1 1) rotate(0) translate(4 402)">
<title>%3</title>
<polygon fill="white" stroke="transparent" points="-4,4 -4,-402 685,-402 685,4 -4,4"/>
<text text-anchor="middle" x="340.5" y="-378" font-family="Courier New" font-size="20.00">SCV Project Data Lineage</text>
<g id="clust1" class="cluster">
<title>cluster_bronze</title>
<path fill="none" stroke="black" d="M20,-8C20,-8 218,-8 218,-8 224,-8 230,-14 230,-20 230,-20 230,-348 230,-348 230,-354 224,-360 218,-360 218,-360 20,-360 20,-360 14,-360 8,-354 8,-348 8,-348 8,-20 8,-20 8,-14 14,-8 20,-8"/>
<text text-anchor="middle" x="119" y="-340" font-family="Courier New" font-size="20.00">bronze</text>
</g>
<g id="clust2" class="cluster">
<title>cluster_gold</title>
<path fill="none" stroke="black" d="M504,-170C504,-170 661,-170 661,-170 667,-170 673,-176 673,-182 673,-182 673,-240 673,-240 673,-246 667,-252 661,-252 661,-252 504,-252 504,-252 498,-252 492,-246 492,-240 492,-240 492,-182 492,-182 492,-176 498,-170 504,-170"/>
<text text-anchor="middle" x="582.5" y="-232" font-family="Courier New" font-size="20.00">gold</text>
</g>
<g id="clust3" class="cluster">
<title>cluster_silver</title>
<path fill="none" stroke="black" d="M262,-170C262,-170 460,-170 460,-170 466,-170 472,-176 472,-182 472,-182 472,-240 472,-240 472,-246 466,-252 460,-252 460,-252 262,-252 262,-252 256,-252 250,-246 250,-240 250,-240 250,-182 250,-182 250,-176 256,-170 262,-170"/>
<text text-anchor="middle" x="361" y="-232" font-family="Courier New" font-size="20.00">silver</text>
</g>
<!-- model_scv_bronze_customers -->
<g id="node1" class="node">
<title>model_scv_bronze_customers</title>
<g id="a_node1"><a xlink:title="Bronze layer view for D365 customer data with minimal transformations">
<path fill="#66c5cc" stroke="#66c5cc" d="M181.5,-322C181.5,-322 56.5,-322 56.5,-322 50.5,-322 44.5,-316 44.5,-310 44.5,-310 44.5,-298 44.5,-298 44.5,-292 50.5,-286 56.5,-286 56.5,-286 181.5,-286 181.5,-286 187.5,-286 193.5,-292 193.5,-298 193.5,-298 193.5,-310 193.5,-310 193.5,-316 187.5,-322 181.5,-322"/>
<text text-anchor="middle" x="119" y="-300.3" font-family="Courier New" font-size="14.00">bronze_customers</text>
</a>
</g>
</g>
<!-- model_scv_silver_customer_weather -->
<g id="node8" class="node">
<title>model_scv_silver_customer_weather</title>
<g id="a_node8"><a xlink:title="Silver layer table combining customer data with weather forecasts for location&#45;based analysis">
<path fill="#f89c74" stroke="#f89c74" d="M452,-214C452,-214 270,-214 270,-214 264,-214 258,-208 258,-202 258,-202 258,-190 258,-190 258,-184 264,-178 270,-178 270,-178 452,-178 452,-178 458,-178 464,-184 464,-190 464,-190 464,-202 464,-202 464,-208 458,-214 452,-214"/>
<text text-anchor="middle" x="361" y="-192.3" font-family="Courier New" font-size="14.00">silver_customer_weather</text>
</a>
</g>
</g>
<!-- model_scv_bronze_customers&#45;&gt;model_scv_silver_customer_weather -->
<g id="edge3" class="edge">
<title>model_scv_bronze_customers&#45;&gt;model_scv_silver_customer_weather</title>
<path fill="none" stroke="black" stroke-width="2" d="M193.54,-289.39C205.93,-285.96 218.49,-281.85 230,-277 265.44,-262.06 302.34,-238.14 327.73,-220.16"/>
<polygon fill="black" stroke="black" stroke-width="2" points="329.79,-222.99 335.88,-214.31 325.71,-217.3 329.79,-222.99"/>
</g>
<!-- model_scv_bronze_legacy_customers -->
<g id="node2" class="node">
<title>model_scv_bronze_legacy_customers</title>
<g id="a_node2"><a xlink:title="Bronze layer view for legacy Excel customer data with minimal transformations">
<path fill="#66c5cc" stroke="#66c5cc" d="M210,-214C210,-214 28,-214 28,-214 22,-214 16,-208 16,-202 16,-202 16,-190 16,-190 16,-184 22,-178 28,-178 28,-178 210,-178 210,-178 216,-178 222,-184 222,-190 222,-190 222,-202 222,-202 222,-208 216,-214 210,-214"/>
<text text-anchor="middle" x="119" y="-192.3" font-family="Courier New" font-size="14.00">bronze_legacy_customers</text>
</a>
</g>
</g>
<!-- model_scv_bronze_weather -->
<g id="node3" class="node">
<title>model_scv_bronze_weather</title>
<g id="a_node3"><a xlink:title="Bronze layer view for weather forecast data from Snowflake Marketplace">
<path fill="#66c5cc" stroke="#66c5cc" d="M173,-106C173,-106 65,-106 65,-106 59,-106 53,-100 53,-94 53,-94 53,-82 53,-82 53,-76 59,-70 65,-70 65,-70 173,-70 173,-70 179,-70 185,-76 185,-82 185,-82 185,-94 185,-94 185,-100 179,-106 173,-106"/>
<text text-anchor="middle" x="119" y="-84.3" font-family="Courier New" font-size="14.00">bronze_weather</text>
</a>
</g>
</g>
<!-- model_scv_bronze_weather&#45;&gt;model_scv_silver_customer_weather -->
<g id="edge4" class="edge">
<title>model_scv_bronze_weather&#45;&gt;model_scv_silver_customer_weather</title>
<path fill="none" stroke="black" stroke-width="2" d="M185.09,-100.37C200.13,-104.21 215.87,-109.04 230,-115 265.44,-129.94 302.34,-153.86 327.73,-171.84"/>
<polygon fill="black" stroke="black" stroke-width="2" points="325.71,-174.7 335.88,-177.69 329.79,-169.01 325.71,-174.7"/>
</g>
<!-- source_scv_bronze_D365_CUSTOMERS -->
<g id="node4" class="node">
<title>source_scv_bronze_D365_CUSTOMERS</title>
<g id="a_node4"><a xlink:title="External table for D365 customer data from ADLS">
<polygon fill="#66c5cc" stroke="#66c5cc" points="173,-262 53,-262 53,-238 173,-238 185,-250 173,-262"/>
<text text-anchor="middle" x="119" y="-246.3" font-family="Courier New" font-size="14.00">D365_CUSTOMERS</text>
</a>
</g>
</g>
<!-- source_scv_bronze_D365_CUSTOMERS&#45;&gt;model_scv_bronze_customers -->
<g id="edge1" class="edge">
<title>source_scv_bronze_D365_CUSTOMERS&#45;&gt;model_scv_bronze_customers</title>
<path fill="none" stroke="black" stroke-width="2" d="M119,-268.14C119,-270.62 119,-273.1 119,-275.59"/>
<polygon fill="black" stroke="black" stroke-width="2" points="115.5,-275.79 119,-285.79 122.5,-275.79 115.5,-275.79"/>
</g>
<!-- source_scv_bronze_EXCEL_DATA -->
<g id="node5" class="node">
<title>source_scv_bronze_EXCEL_DATA</title>
<g id="a_node5"><a xlink:title="External table for Legacy Excel customer data">
<polygon fill="#66c5cc" stroke="#66c5cc" points="156.5,-154 69.5,-154 69.5,-130 156.5,-130 168.5,-142 156.5,-154"/>
<text text-anchor="middle" x="119" y="-138.3" font-family="Courier New" font-size="14.00">EXCEL_DATA</text>
</a>
</g>
</g>
<!-- source_scv_bronze_EXCEL_DATA&#45;&gt;model_scv_bronze_legacy_customers -->
<g id="edge5" class="edge">
<title>source_scv_bronze_EXCEL_DATA&#45;&gt;model_scv_bronze_legacy_customers</title>
<path fill="none" stroke="black" stroke-width="2" d="M119,-160.14C119,-162.62 119,-165.1 119,-167.59"/>
<polygon fill="black" stroke="black" stroke-width="2" points="115.5,-167.79 119,-177.79 122.5,-167.79 115.5,-167.79"/>
</g>
<!-- source_scv_marketplace_forecast_day -->
<g id="node6" class="node">
<title>source_scv_marketplace_forecast_day</title>
<g id="a_node6"><a xlink:title="Weather forecast data from Snowflake Marketplace">
<polygon fill="#66c5cc" stroke="#66c5cc" points="165,-46 61,-46 61,-22 165,-22 177,-34 165,-46"/>
<text text-anchor="middle" x="119" y="-30.3" font-family="Courier New" font-size="14.00">forecast_day</text>
</a>
</g>
</g>
<!-- source_scv_marketplace_forecast_day&#45;&gt;model_scv_bronze_weather -->
<g id="edge6" class="edge">
<title>source_scv_marketplace_forecast_day&#45;&gt;model_scv_bronze_weather</title>
<path fill="none" stroke="black" stroke-width="2" d="M119,-52.14C119,-54.62 119,-57.1 119,-59.59"/>
<polygon fill="black" stroke="black" stroke-width="2" points="115.5,-59.79 119,-69.79 122.5,-59.79 115.5,-59.79"/>
</g>
<!-- model_scv_gold_customer_kpis -->
<g id="node7" class="node">
<title>model_scv_gold_customer_kpis</title>
<g id="a_node7"><a xlink:title="Gold layer table with regional customer KPIs and weather metrics for business intelligence">
<path fill="#f6cf71" stroke="#f6cf71" d="M653,-214C653,-214 512,-214 512,-214 506,-214 500,-208 500,-202 500,-202 500,-190 500,-190 500,-184 506,-178 512,-178 512,-178 653,-178 653,-178 659,-178 665,-184 665,-190 665,-190 665,-202 665,-202 665,-208 659,-214 653,-214"/>
<text text-anchor="middle" x="582.5" y="-192.3" font-family="Courier New" font-size="14.00">gold_customer_kpis</text>
</a>
</g>
</g>
<!-- model_scv_silver_customer_weather&#45;&gt;model_scv_gold_customer_kpis -->
<g id="edge2" class="edge">
<title>model_scv_silver_customer_weather&#45;&gt;model_scv_gold_customer_kpis</title>
<path fill="none" stroke="black" stroke-width="2" d="M464.04,-196C472.56,-196 481.13,-196 489.57,-196"/>
<polygon fill="black" stroke="black" stroke-width="2" points="489.77,-199.5 499.77,-196 489.77,-192.5 489.77,-199.5"/>
</g>
</g>
</svg>
